<?xml version="1.0" encoding="UTF-8"?>
<svg id="Capa_2" data-name="Capa 2" xmlns="http://www.w3.org/2000/svg" viewBox="0 0 304.62 354.2">
  <defs>
    <style>
      .cls-1 {
        stroke-width: 2px;
      }

      .cls-1, .cls-2 {
        fill: none;
        stroke: #fff;
        stroke-miterlimit: 10;
      }

      .cls-2 {
        stroke-width: 6px;
      }
    </style>
  </defs>
  <g id="Capa_1-2" data-name="Capa 1">
    <g>
      <path class="cls-2" d="m90.39,252c-9.37,7.62-21.15,16.04-35.67,24.25-17.22,9.74-33.76,16.62-47.78,21.49-.87.48-2.09.42-2.97-.14-.8-.53-1.25-1.41-.77-2.29,1.46-20.35,6.12-47.02,19.17-76.33,11.19-25.14,25.71-45.87,40-62.36,6.55-7.57,13.05-14.24,19.15-20.05-.71,4.02-1.31,8.09-1.81,12.22-3.12,25.37-2.12,50.04,2.36,72.92h0c1.94,9.91,4.52,19.48,7.71,28.62.19.57.39,1.13.6,1.68Z"/>
      <path class="cls-2" d="m198.96,74.63c-10.37-4.02-26.26-8.76-46.09-9.36-23.59-.71-42.35,4.76-53.55,9,.15-.39.3-.78.46-1.17,1.87-4.87,3.87-9.57,6-14.09h0c11.42-24.41,26.24-43.54,43.18-55.08.02-.02.05-.03.07-.05,20.27,13.73,37.51,38.24,49.5,69.58.15.39.3.78.45,1.17Z"/>
      <path class="cls-2" d="m179.24,97.93c8.08,7.89,13.1,18.91,13.1,31.11,0,.33,0,.66-.01.98-.24,10.91-4.49,20.83-11.35,28.34-7.75,8.51-18.83,13.93-31.19,14.2-.32.01-.65.01-.98.01h-.02c-11.77-.01-22.45-4.68-30.28-12.28-8.16-7.91-13.23-18.99-13.23-31.25,0-.34,0-.67.01-1,.53-23.58,19.82-42.52,43.52-42.52,11.84,0,22.58,4.73,30.43,12.41Z"/>
      <g>
        <path class="cls-2" d="m179.24,97.93c-7.85-7.68-18.59-12.41-30.43-12.41-23.7,0-42.99,18.94-43.52,42.52-.01.33-.01.66-.01,1,0,12.26,5.07,23.34,13.23,31.25,7.83,7.6,18.51,12.27,30.28,12.28h.02c.33,0,.66,0,.98-.01,12.36-.27,23.44-5.69,31.19-14.2,6.86-7.51,11.11-17.43,11.35-28.34.01-.32.01-.65.01-.98,0-12.2-5.02-23.22-13.1-31.11Zm-3.53,32.52c0,5.99-2.04,11.52-5.46,15.94-.29.38-.6.75-.91,1.12-4.73,5.5-11.71,9.02-19.55,9.17-.18.01-.37.01-.55.01h-.02c-6.48,0-12.43-2.32-17.03-6.18-.87-.73-1.7-1.51-2.45-2.34-4.32-4.66-6.96-10.89-6.96-17.72,0-.38.01-.75.03-1.12v-.07c.31-7.2,3.56-13.65,8.58-18.18.11-.1.22-.2.33-.3,4.67-4.09,10.79-6.57,17.5-6.58h.02c.18,0,.37,0,.55,0,6.9.14,13.16,2.89,17.78,7.31.19.18.37.36.55.54,4.55,4.61,7.41,10.86,7.57,17.76v.1c.02.17.02.35.02.53Z"/>
        <line class="cls-2" x1="182.98" y1="160.22" x2="167.3" y2="145.61"/>
        <line class="cls-2" x1="132.63" y1="112.23" x2="118.37" y2="98.95"/>
        <polyline class="cls-2" points="105.28 129.04 105.29 129.04 125.24 129.29"/>
        <line class="cls-2" x1="194.34" y1="130.04" x2="172.83" y2="129.79"/>
        <polyline class="cls-2" points="179.71 98.43 179.31 98.85 166.91 112.23"/>
        <line class="cls-2" x1="130.63" y1="147.22" x2="118.09" y2="160.74"/>
        <line class="cls-2" x1="149.79" y1="106.52" x2="149.79" y2="88.26"/>
        <polyline class="cls-2" points="149.79 174.68 149.79 173.16 149.79 154.66"/>
      </g>
      <circle class="cls-1" cx="149.79" cy="56.64" r=".67"/>
      <circle class="cls-1" cx="114.14" cy="62.79" r=".67"/>
      <circle class="cls-1" cx="161.17" cy="57.42" r=".67"/>
      <circle class="cls-1" cx="182.92" cy="62.79" r=".67"/>
      <circle class="cls-1" cx="172.48" cy="59.65" r=".67"/>
      <circle class="cls-1" cx="137.17" cy="57.42" r=".67"/>
      <circle class="cls-1" cx="125.53" cy="59.65" r=".67"/>
      <g>
        <path class="cls-2" d="m301.4,294.94c-2.14-20.93-7.82-48.24-22.33-78.01-18.15-37.24-43.42-64.55-64.23-82.94.85,4.13,1.6,8.31,2.26,12.53,5.43,35.18,2.98,69.26-5.8,99.48,0,.03,0,.06-.02.09-.53,1.81-1.07,3.61-1.65,5.39-.19.59-.38,1.17-.58,1.75.16.12.31.24.47.34,9.93,7.45,22.34,15.58,37.51,23.44,18.27,9.45,35.75,15.98,50.53,20.54.93.46,2.2.37,3.1-.24.83-.56,1.27-1.49.75-2.38Z"/>
        <path class="cls-2" d="m178.96,267.42c13.1-4.12,22.95-10.05,29.28-14.53,5.69-22.81,8.83-48.01,8.83-74.51,0-38.16-6.53-73.63-17.73-103.14-.15-.06-.3-.11-.45-.17l.45,1.17c-10.44-4.02-26.44-8.76-46.41-9.36-23.76-.71-42.64,4.76-53.92,9,.15-.39.3-.78.46-1.17-.16.06-.31.11-.46.17-11.44,29.99-18.14,66.19-18.14,105.16,0,22.17,2.17,43.44,6.15,63.19h0c.59,2.95,1.22,5.85,1.9,8.72.23.18.47.36.71.54,5.62,4.16,19.09,13.23,38.48,17.47,2.29.5,4.66.94,7.11,1.29-1.97-.21-3.88-.45-5.73-.71-.59-.12-1.19-.24-1.77-.37-19.4-4.24-32.88-13.31-38.5-17.47,6.53,4.96,18.66,12.88,35.58,17.08-3.43-.61-6.61-1.3-9.48-2.01l7.58,16.34h13.43c-.31.27-.62.55-.92.85-2.37,2.32-4.51,5.49-6.06,9.19-3.08,7.4-2.77,14.63.39,17.99,2.15-.3,4.43-1.5,6.57-3.41-.03,1.04-.05,2.09-.05,3.15,0,.75.01,1.49.03,2.22-1.5,2.37-2.71,5.51-3.36,9.05-1.19,6.56-.05,12.4,2.57,14.62,1.33-.55,2.64-1.76,3.81-3.43,2.31,7.71,5.78,13.54,9.85,16.24,4.07-2.71,7.54-8.56,9.86-16.28,1.1,1.49,2.32,2.55,3.56,3.06,2.61-2.21,3.75-8.06,2.56-14.62-.61-3.35-1.73-6.34-3.11-8.66.02-.73.03-1.47.03-2.21,0-1.06-.02-2.12-.06-3.15,2.15,1.89,4.43,3.11,6.58,3.4,3.15-3.36,3.46-10.58.38-17.99-1.74-4.17-4.24-7.66-6.96-10.03h14.71l7.49-16.13c-7.87,1.9-17.52,3.53-28.59,3.95,3.96-.32,8.31-.88,12.94-1.83,3.34-.67,6.83-1.55,10.41-2.68ZM105.69,126.65c.53-23.58,19.81-42.52,43.49-42.52,11.83,0,22.57,4.73,30.41,12.41,8.08,7.89,13.09,18.91,13.09,31.11,0,.33,0,.66-.01.98-.24,10.91-4.49,20.83-11.34,28.34-7.75,8.51-18.82,13.93-31.17,14.2-.32.01-.65.01-.98.01h-.02c-11.76-.01-22.44-4.68-30.26-12.28-8.16-7.91-13.22-18.99-13.22-31.25,0-.34,0-.67.01-1Z"/>
      </g>
      <path class="cls-2" d="m120.76,269.01c2.5.48,11.1,2.1,19.27,2.81,2.32.2,5.79.49,9.8.4.98-.02,2.65-.08,4.34-.16,2.04-.1,3.75-.21,4.98-.3"/>
      <path class="cls-2" d="m134.57,284.12c4.83-.2,9.84-.32,15.03-.33,5.56,0,10.92.11,16.07.33"/>
    </g>
  </g>
</svg>