<?xml version="1.0" encoding="UTF-8"?>
<svg id="Capa_2" data-name="Capa 2" xmlns="http://www.w3.org/2000/svg" viewBox="0 0 475.46 139.45">
  <defs>
    <style>
      .cls-1 {
        fill: none;
      }

      .cls-1, .cls-2 {
        stroke: #006837;
        stroke-miterlimit: 10;
      }

      .cls-2 {
        fill: #799b2e;
      }

      .cls-3 {
        fill: #006837;
        stroke-width: 0px;
      }
    </style>
  </defs>
  <g id="Capa_1-2" data-name="Capa 1">
    <g>
      <path class="cls-2" d="m475.2,84.03C422.05,51.82,287.74-19.01,121.2,6.03,74.13,13.11,33.55,26.49.2,41.03"/>
      <path class="cls-2" d="m471.48,83.38c-60.14,30.03-209.25,92.47-363.49,26.23C64.4,90.89,28.8,65.49.5,40.1"/>
      <path class="cls-3" d="m1.95,42.22c30.16,10.4,60.3,20.86,90.48,31.19,29.42,10.07,59.06,19.75,89.47,26.39,30.5,6.67,61.65,9.85,92.84,10.44,31.33.59,62.73-1.2,93.83-4.95,30.64-3.69,61.04-9.35,90.95-16.97,3.79-.97,7.58-1.97,11.36-3,1.86-.51,1.07-3.4-.8-2.89-29.79,8.11-60.1,14.31-90.7,18.48-30.86,4.21-62.03,6.42-93.18,6.44-31.43.01-62.92-2.39-93.79-8.42-30.25-5.91-59.75-15.08-88.92-24.92S43.98,53.54,14.24,43.28l-11.48-3.96c-1.83-.63-2.61,2.27-.8,2.89h0Z"/>
      <path class="cls-1" d="m3.8,41.61c29.16-6.88,59.07-10.73,89.03-10.75,55.93-.05,110.9,13.15,166.26,21.16,23.1,3.34,46.31,5.79,69.48,8.58,46.86,5.64,93.54,12.69,139.98,21.14"/>
      <path class="cls-1" d="m19.57,32.97c4.53.39,9.03,1.13,13.45,2.24"/>
      <path class="cls-1" d="m40.99,35.32c-5.08,6.04-12.31,10.24-20.08,11.65"/>
      <path class="cls-1" d="m40.14,25.91c6.42.62,12.68,2.89,18,6.53"/>
      <path class="cls-1" d="m71.85,31.94c-5.07,8.02-13.73,12.93-22.05,17.51-2.48,1.36-4.95,2.73-7.43,4.09"/>
      <path class="cls-1" d="m70.93,17.89c7.84,1.86,15.06,6.25,20.32,12.35"/>
      <path class="cls-1" d="m100.92,30.95c-10.62,12.82-24.56,22.87-40.08,28.89"/>
      <path class="cls-1" d="m95.57,10.12c11.64,3.81,21.98,11.5,28.97,21.56"/>
      <path class="cls-1" d="m85.95,69l24.65-9.47c3.85-1.48,7.72-2.97,11.3-5.01,7.72-4.41,13.82-11.26,18.46-18.84"/>
      <path class="cls-1" d="m134.08,4.87c14.5,5.94,24.63,19.01,34.06,31.52"/>
      <path class="cls-1" d="m175.9,40.2c-10.39,14.01-27.26,21.39-43.47,27.82-8.3,3.29-16.66,6.5-25.33,8.61"/>
      <path class="cls-1" d="m178.34,3.53l-.64-.64c13.32,9.69,21.48,23.46,23.3,39.84"/>
      <path class="cls-1" d="m206.42,45.12c-17.88,19.25-41.26,33.32-66.63,40.11"/>
      <path class="cls-1" d="m208.68,1.09c2.03,5.11,6.62,8.64,10.52,12.5,9.71,9.6,15.94,22.65,17.32,36.23"/>
      <path class="cls-1" d="m238.16,3.53c1.47-.19,2.72,1,3.72,2.09,13.82,15.08,28.08,30.91,33.82,50.55"/>
      <path class="cls-1" d="m282.28,10.77c7.06,5.31,12.26,12.77,16.07,20.74s6.29,16.49,8.75,24.97"/>
      <path class="cls-1" d="m311.23,15.47c6.45,10.1,12.18,20.65,17.16,31.56,1.99,4.36,3.89,8.95,3.7,13.74"/>
      <path class="cls-1" d="m340.6,24.55c8.57,11.42,13.99,25.18,15.53,39.37"/>
      <path class="cls-1" d="m366.64,33.78c5.78,10.29,9.65,21.66,11.34,33.35"/>
      <path class="cls-1" d="m382.76,39.55c8.96,8.06,15.34,18.95,17.98,30.7"/>
      <path class="cls-1" d="m405.72,50.11c6.03,7.57,10.69,16.23,13.67,25.43"/>
      <path class="cls-1" d="m433.61,60.82c5.6,4.31,7.27,11.91,8.55,18.86"/>
      <path class="cls-1" d="m248.48,52.45c-17.1,19.38-37.97,35.42-61.08,46.99"/>
      <path class="cls-1" d="m286.05,57.59c-1.11,4.36-3.49,8.28-5.99,12.02-10.1,15.1-22.66,28.56-37.04,39.67"/>
      <path class="cls-1" d="m321.34,61.43c-6.06,18.65-19.37,33.9-32.36,48.59"/>
      <path class="cls-1" d="m346.55,63.73c-1.58,15.8-9.4,30.2-17.07,44.1"/>
      <path class="cls-1" d="m368.19,68.55c-5.53,13.61-12.17,26.78-19.82,39.32"/>
      <path class="cls-1" d="m390.14,69.82c2.28,11.5-.42,23.91-7.3,33.42"/>
      <path class="cls-1" d="m409.59,73.66c2.2,7.69,2.19,15.99-.01,23.68"/>
      <path class="cls-1" d="m430.84,78.13c.85,4.97.33,10.17-1.49,14.87"/>
      <path class="cls-1" d="m264.63,54.42c-13.04,17.85-26.9,35.11-41.51,51.69"/>
      <path class="cls-1" d="m223.66,48.14c-15.86,20.02-37.31,35.58-61.27,44.43"/>
      <path class="cls-1" d="m301.53,59.39c-5.77,18.46-16.04,35.5-29.66,49.24"/>
      <path class="cls-1" d="m160.77,2.42c10.54,9.52,18.23,22.15,21.86,35.88"/>
      <path class="cls-1" d="m194.36.39c14.06,11.65,25.22,26.78,32.19,43.65"/>
      <path class="cls-1" d="m226.99,2.3c5.21,8.03,11.9,14.99,17.35,22.86s9.7,17.12,9.03,26.67"/>
      <path class="cls-1" d="m262.93,7.07c13.88,11.83,22.47,29.65,23.09,47.88"/>
      <path class="cls-1" d="m122.68,6.58c9.29,7.48,17.2,16.67,23.2,26.99"/>
    </g>
  </g>
</svg>